# https://github.com/mikedh/trimesh
v 1.04000000 0.00000000 0.00000000
v 1.46000000 0.00000000 0.00000000
v 1.04000000 0.90000000 0.00000000
v 1.46000000 0.90000000 0.00000000
v 1.02719587 0.00000000 -0.16269184
v 1.44202498 0.00000000 -0.22839432
v 1.02719587 0.90000000 -0.16269184
v 1.44202498 0.90000000 -0.22839432
v 0.98909878 0.00000000 -0.32137767
v 1.38854251 0.00000000 -0.45116481
v 0.98909878 0.90000000 -0.32137767
v 1.38854251 0.90000000 -0.45116481
v 0.92664679 0.00000000 -0.47215012
v 1.30086953 0.00000000 -0.66282613
v 0.92664679 0.90000000 -0.47215012
v 1.30086953 0.90000000 -0.66282613
v 0.84137767 0.00000000 -0.61129666
v 1.18116481 0.00000000 -0.85816647
v 0.84137767 0.90000000 -0.61129666
v 1.18116481 0.90000000 -0.85816647
v 0.73539105 0.00000000 -0.73539105
v 1.03237590 0.00000000 -1.03237590
v 0.73539105 0.90000000 -0.73539105
v 1.03237590 0.90000000 -1.03237590
v 0.61129666 0.00000000 -0.84137767
v 0.85816647 0.00000000 -1.18116481
v 0.61129666 0.90000000 -0.84137767
v 0.85816647 0.90000000 -1.18116481
v 0.47215012 0.00000000 -0.92664679
v 0.66282613 0.00000000 -1.30086953
v 0.47215012 0.90000000 -0.92664679
v 0.66282613 0.90000000 -1.30086953
v 0.32137767 0.00000000 -0.98909878
v 0.45116481 0.00000000 -1.38854251
v 0.32137767 0.90000000 -0.98909878
v 0.45116481 0.90000000 -1.38854251
v -0.32137767 0.00000000 -0.98909878
v -0.45116481 0.00000000 -1.38854251
v -0.32137767 0.90000000 -0.98909878
v -0.45116481 0.90000000 -1.38854251
v -0.48182788 0.00000000 -0.92165172
v -0.67641221 0.00000000 -1.29385723
v -0.48182788 0.90000000 -0.92165172
v -0.67641221 0.90000000 -1.29385723
v -0.62878308 0.00000000 -0.82839111
v -0.88271471 0.00000000 -1.16293368
v -0.62878308 0.90000000 -0.82839111
v -0.88271471 0.90000000 -1.16293368
v -0.75812737 0.00000000 -0.71192899
v -1.06429420 0.00000000 -0.99943877
v -0.75812737 0.90000000 -0.71192899
v -1.06429420 0.90000000 -0.99943877
v -0.86623809 0.00000000 -0.57552721
v -1.21606501 0.00000000 -0.80795166
v -0.86623809 0.90000000 -0.57552721
v -1.21606501 0.90000000 -0.80795166
v -0.95008728 0.00000000 -0.42300611
v -1.33377637 0.00000000 -0.59383550
v -0.95008728 0.90000000 -0.42300611
v -1.33377637 0.90000000 -0.59383550
v -1.00732649 0.00000000 -0.25863748
v -1.41413142 0.00000000 -0.36308724
v -1.00732649 0.90000000 -0.25863748
v -1.41413142 0.90000000 -0.36308724
v -1.03635257 0.00000000 -0.08702496
v -1.45487957 0.00000000 -0.12216965
v -1.03635257 0.90000000 -0.08702496
v -1.45487957 0.90000000 -0.12216965
v -1.03635257 -0.00000000 0.08702496
v -1.45487957 -0.00000000 0.12216965
v -1.03635257 0.90000000 0.08702496
v -1.45487957 0.90000000 0.12216965
v -1.00732649 -0.00000000 0.25863748
v -1.41413142 -0.00000000 0.36308724
v -1.00732649 0.90000000 0.25863748
v -1.41413142 0.90000000 0.36308724
v -0.95008728 -0.00000000 0.42300611
v -1.33377637 -0.00000000 0.59383550
v -0.95008728 0.90000000 0.42300611
v -1.33377637 0.90000000 0.59383550
v -0.86623809 -0.00000000 0.57552721
v -1.21606501 -0.00000000 0.80795166
v -0.86623809 0.90000000 0.57552721
v -1.21606501 0.90000000 0.80795166
v -0.75812737 -0.00000000 0.71192899
v -1.06429420 -0.00000000 0.99943877
v -0.75812737 0.90000000 0.71192899
v -1.06429420 0.90000000 0.99943877
v -0.62878308 -0.00000000 0.82839111
v -0.88271471 -0.00000000 1.16293368
v -0.62878308 0.90000000 0.82839111
v -0.88271471 0.90000000 1.16293368
v -0.48182788 -0.00000000 0.92165172
v -0.67641221 -0.00000000 1.29385723
v -0.48182788 0.90000000 0.92165172
v -0.67641221 0.90000000 1.29385723
v -0.32137767 -0.00000000 0.98909878
v -0.45116481 -0.00000000 1.38854251
v -0.32137767 0.90000000 0.98909878
v -0.45116481 0.90000000 1.38854251
v 0.32137767 -0.00000000 0.98909878
v 0.45116481 -0.00000000 1.38854251
v 0.32137767 0.90000000 0.98909878
v 0.45116481 0.90000000 1.38854251
v 0.47215012 -0.00000000 0.92664679
v 0.66282613 -0.00000000 1.30086953
v 0.47215012 0.90000000 0.92664679
v 0.66282613 0.90000000 1.30086953
v 0.61129666 -0.00000000 0.84137767
v 0.85816647 -0.00000000 1.18116481
v 0.61129666 0.90000000 0.84137767
v 0.85816647 0.90000000 1.18116481
v 0.73539105 -0.00000000 0.73539105
v 1.03237590 -0.00000000 1.03237590
v 0.73539105 0.90000000 0.73539105
v 1.03237590 0.90000000 1.03237590
v 0.84137767 -0.00000000 0.61129666
v 1.18116481 -0.00000000 0.85816647
v 0.84137767 0.90000000 0.61129666
v 1.18116481 0.90000000 0.85816647
v 0.92664679 -0.00000000 0.47215012
v 1.30086953 -0.00000000 0.66282613
v 0.92664679 0.90000000 0.47215012
v 1.30086953 0.90000000 0.66282613
v 0.98909878 -0.00000000 0.32137767
v 1.38854251 -0.00000000 0.45116481
v 0.98909878 0.90000000 0.32137767
v 1.38854251 0.90000000 0.45116481
v 1.02719587 -0.00000000 0.16269184
v 1.44202498 -0.00000000 0.22839432
v 1.02719587 0.90000000 0.16269184
v 1.44202498 0.90000000 0.22839432
v 1.04000000 -0.00000000 0.00000000
v 1.46000000 -0.00000000 0.00000000
v 1.04000000 0.90000000 0.00000000
v 1.46000000 0.90000000 0.00000000
v 2.34000000 0.00000000 0.00000000
v 2.76000000 0.00000000 0.00000000
v 2.34000000 0.90000000 0.00000000
v 2.76000000 0.90000000 0.00000000
v 2.33429988 0.00000000 -0.16323015
v 2.75327678 0.00000000 -0.19252787
v 2.33429988 0.90000000 -0.16323015
v 2.75327678 0.90000000 -0.19252787
v 1.89309977 0.00000000 -1.37541749
v 2.23288690 0.00000000 -1.62228730
v 1.89309977 0.90000000 -1.37541749
v 2.23288690 0.90000000 -1.62228730
v 1.62941329 0.00000000 -1.67946787
v 1.92187209 0.00000000 -1.98091082
v 1.62941329 0.90000000 -1.67946787
v 1.92187209 0.90000000 -1.98091082
v 1.31752612 0.00000000 -1.93383684
v 1.55400516 0.00000000 -2.28093576
v 1.31752612 0.90000000 -1.93383684
v 1.55400516 0.90000000 -2.28093576
v 0.96666437 0.00000000 -2.13099977
v 1.14016823 0.00000000 -2.51348690
v 0.96666437 0.90000000 -2.13099977
v 1.14016823 0.90000000 -2.51348690
v 0.58720710 0.00000000 -2.26512424
v 0.69260325 0.00000000 -2.67168500
v 0.58720710 0.90000000 -2.26512424
v 0.69260325 0.90000000 -2.67168500
v 0.19037930 0.00000000 -2.33224264
v 0.22454994 0.00000000 -2.75085029
v 0.19037930 0.90000000 -2.33224264
v 0.22454994 0.90000000 -2.75085029
v -0.21208024 0.00000000 -2.33036949
v -0.25014592 0.00000000 -2.74864094
v -0.21208024 0.90000000 -2.33036949
v -0.25014592 0.90000000 -2.74864094
v -0.60826609 0.00000000 -2.25956021
v -0.71744206 0.00000000 -2.66512230
v -0.60826609 0.90000000 -2.25956021
v -0.71744206 0.90000000 -2.66512230
v -0.98645845 0.00000000 -2.12190945
v -1.16351509 0.00000000 -2.50276500
v -0.98645845 0.90000000 -2.12190945
v -1.16351509 0.90000000 -2.50276500
v -1.33546975 0.00000000 -1.92148915
v -1.57516945 0.00000000 -2.26637182
v -1.33546975 0.90000000 -1.92148915
v -1.57516945 0.90000000 -2.26637182
v -1.64497567 0.00000000 -1.66422806
v -1.94022772 0.00000000 -1.96293566
v -1.64497567 0.90000000 -1.66422806
v -1.94022772 0.90000000 -1.96293566
v -1.90582053 0.00000000 -1.35773638
v -2.24789089 0.00000000 -1.60143266
v -1.90582053 0.90000000 -1.35773638
v -2.24789089 0.90000000 -1.60143266
v -2.11028811 0.00000000 -1.01108065
v -2.48905777 0.00000000 -1.19255667
v -2.11028811 0.90000000 -1.01108065
v -2.48905777 0.90000000 -1.19255667
v -2.25232992 0.00000000 -0.63451550
v -2.65659427 0.00000000 -0.74840290
v -2.25232992 0.90000000 -0.63451550
v -2.65659427 0.90000000 -0.74840290
v -2.32774414 0.00000000 -0.23918035
v -2.74554436 0.00000000 -0.28211016
v -2.32774414 0.90000000 -0.23918035
v -2.74554436 0.90000000 -0.28211016
v -2.33429988 -0.00000000 0.16323015
v -2.75327678 -0.00000000 0.19252787
v -2.33429988 0.90000000 0.16323015
v -2.75327678 0.90000000 0.19252787
v -1.89309977 -0.00000000 1.37541749
v -2.23288690 -0.00000000 1.62228730
v -1.89309977 0.90000000 1.37541749
v -2.23288690 0.90000000 1.62228730
v -1.63721222 -0.00000000 1.67186607
v -1.93107082 -0.00000000 1.97194460
v -1.63721222 0.90000000 1.67186607
v -1.93107082 0.90000000 1.97194460
v -1.33546975 -0.00000000 1.92148915
v -1.57516945 -0.00000000 2.26637182
v -1.33546975 0.90000000 1.92148915
v -1.57516945 0.90000000 2.26637182
v -0.99632354 -0.00000000 2.11729530
v -1.17515084 -0.00000000 2.49732266
v -0.99632354 0.90000000 2.11729530
v -1.17515084 0.90000000 2.49732266
v -0.62927238 -0.00000000 2.25380041
v -0.74221870 -0.00000000 2.65832868
v -0.62927238 0.90000000 2.25380041
v -0.74221870 0.90000000 2.65832868
v -0.24459660 -0.00000000 2.32718124
v -0.28849856 -0.00000000 2.74488043
v -0.24459660 0.90000000 2.32718124
v -0.28849856 0.90000000 2.74488043
v 0.14692982 -0.00000000 2.33538254
v 0.17330183 -0.00000000 2.75455377
v 0.14692982 0.90000000 2.33538254
v 0.17330183 0.90000000 2.75455377
v 0.53434104 -0.00000000 2.27817463
v 0.63024840 -0.00000000 2.68707777
v 0.53434104 0.90000000 2.27817463
v 0.63024840 0.90000000 2.68707777
v 0.90678647 -0.00000000 2.15715977
v 1.06954302 -0.00000000 2.54434230
v 0.90678647 0.90000000 2.15715977
v 1.06954302 0.90000000 2.54434230
v 1.25383470 -0.00000000 1.97572735
v 1.47888195 -0.00000000 2.33034507
v 1.25383470 0.90000000 1.97572735
v 1.47888195 0.90000000 2.33034507
v 1.56576562 -0.00000000 1.73895889
v 1.84680047 -0.00000000 2.05107972
v 1.56576562 0.90000000 1.73895889
v 1.84680047 0.90000000 2.05107972
v 1.83384269 -0.00000000 1.45348581
v 2.16299394 -0.00000000 1.71436787
v 1.83384269 0.90000000 1.45348581
v 2.16299394 0.90000000 1.71436787
v 2.05055763 -0.00000000 1.12730360
v 2.41860644 -0.00000000 1.32964014
v 2.05055763 0.90000000 1.12730360
v 2.41860644 0.90000000 1.32964014
v 2.20984071 -0.00000000 0.76954795
v 2.60647878 -0.00000000 0.90767194
v 2.20984071 0.90000000 0.76954795
v 2.60647878 0.90000000 0.90767194
v 2.30723073 -0.00000000 0.39023887
v 2.72134906 -0.00000000 0.46028174
v 2.30723073 0.90000000 0.39023887
v 2.72134906 0.90000000 0.46028174
v 2.34000000 -0.00000000 0.00000000
v 2.76000000 -0.00000000 0.00000000
v 2.34000000 0.90000000 0.00000000
v 2.76000000 0.90000000 0.00000000
v 3.74000000 0.00000000 0.00000000
v 4.16000000 0.00000000 0.00000000
v 3.74000000 0.90000000 0.00000000
v 4.16000000 0.90000000 0.00000000
v 3.68430888 0.00000000 -0.64301484
v 4.09805480 0.00000000 -0.71522506
v 3.68430888 0.90000000 -0.64301484
v 4.09805480 0.90000000 -0.71522506
v 3.51889408 0.00000000 -1.26687982
v 3.91406400 0.00000000 -1.40914975
v 3.51889408 0.90000000 -1.26687982
v 3.91406400 0.90000000 -1.40914975
v 3.24868186 0.00000000 -1.85301542
v 3.61350710 0.00000000 -2.06110806
v 3.24868186 0.90000000 -1.85301542
v 3.61350710 0.90000000 -2.06110806
v 2.88171953 0.00000000 -2.38396572
v 3.20533509 0.00000000 -2.65168380
v 2.88171953 0.90000000 -2.38396572
v 3.20533509 0.90000000 -2.65168380
v 2.42893570 0.00000000 -2.84391831
v 2.70170388 0.00000000 -3.16328882
v 2.42893570 0.90000000 -2.84391831
v 2.70170388 0.90000000 -3.16328882
v 1.90381489 0.00000000 -3.21917518
v 2.11761229 0.00000000 -3.58068683
v 1.90381489 0.90000000 -3.21917518
v 2.11761229 0.90000000 -3.58068683
v 1.32199592 0.00000000 -3.49856068
v 1.47045535 0.00000000 -3.89144717
v 1.32199592 0.90000000 -3.49856068
v 1.47045535 0.90000000 -3.89144717
v 0.70080612 0.00000000 -3.67375432
v 0.77950627 0.00000000 -4.08631496
v 0.70080612 0.90000000 -3.67375432
v 0.77950627 0.90000000 -4.08631496
v 0.05874537 0.00000000 -3.73953861
v 0.06534244 0.00000000 -4.15948679
v 0.05874537 0.90000000 -3.73953861
v 0.06534244 0.90000000 -4.15948679
v -0.58506490 0.00000000 -3.69395439
v -0.65076737 0.00000000 -4.10878350
v -0.58506490 0.90000000 -3.69395439
v -0.65076737 0.90000000 -4.10878350
v -2.45366077 0.00000000 -2.82261383
v -2.72920556 0.00000000 -3.13959185
v -2.45366077 0.90000000 -2.82261383
v -2.72920556 0.90000000 -3.13959185
v -2.90138410 0.00000000 -2.35999371
v -3.22720798 0.00000000 -2.62501974
v -2.90138410 0.90000000 -2.35999371
v -3.22720798 0.90000000 -2.62501974
v -3.26313507 0.00000000 -1.82744344
v -3.62958339 0.00000000 -2.03266436
v -3.26313507 0.90000000 -1.82744344
v -3.62958339 0.90000000 -2.03266436
v -3.52819445 0.00000000 -1.24074329
v -3.92440880 0.00000000 -1.38007809
v -3.52819445 0.90000000 -1.24074329
v -3.92440880 0.90000000 -1.38007809
v -3.68870815 0.00000000 -0.61727805
v -4.10294810 0.00000000 -0.68659804
v -3.68870815 0.90000000 -0.61727805
v -4.10294810 0.90000000 -0.68659804
v -3.73991990 -0.00000000 0.02447807
v -4.15991090 -0.00000000 0.02722694
v -3.73991990 0.90000000 0.02447807
v -4.15991090 0.90000000 0.02722694
v -3.68031221 -0.00000000 0.66550886
v -4.09360930 -0.00000000 0.74024515
v -3.68031221 0.90000000 0.66550886
v -4.09360930 0.90000000 0.74024515
v -3.51165136 -0.00000000 1.28681963
v -3.90600793 -0.00000000 1.43132878
v -3.51165136 0.90000000 1.28681963
v -3.90600793 0.90000000 1.43132878
v -3.23893501 -0.00000000 1.87000000
v -3.60266568 -0.00000000 2.08000000
v -3.23893501 0.90000000 1.87000000
v -3.60266568 0.90000000 2.08000000
v -2.87024417 -0.00000000 2.39776947
v -3.19257105 -0.00000000 2.66703770
v -2.87024417 0.90000000 2.39776947
v -3.19257105 0.90000000 2.66703770
v -2.41650368 -0.00000000 2.85448944
v -2.68787576 -0.00000000 3.17504707
v -2.41650368 0.90000000 2.85448944
v -2.68787576 0.90000000 3.17504707
v -1.89115858 -0.00000000 3.22662660
v -2.10353467 -0.00000000 3.58897505
v -1.89115858 0.90000000 3.22662660
v -2.10353467 0.90000000 3.58897505
v -1.30977561 -0.00000000 3.50315399
v -1.45686271 -0.00000000 3.89655631
v -1.30977561 0.90000000 3.50315399
v -1.45686271 0.90000000 3.89655631
v -0.68958202 -0.00000000 3.67587767
v -0.76702171 -0.00000000 4.08867677
v -0.68958202 0.90000000 3.67587767
v -0.76702171 0.90000000 4.08867677
v -0.04895509 -0.00000000 3.73967959
v -0.05445272 -0.00000000 4.15964360
v -0.04895509 0.90000000 3.73967959
v -0.05445272 0.90000000 4.15964360
v 0.59312246 -0.00000000 3.69266919
v 0.65972979 -0.00000000 4.10735397
v 0.59312246 0.90000000 3.69266919
v 0.65972979 0.90000000 4.10735397
v 1.21762490 -0.00000000 3.53623947
v 1.35436352 -0.00000000 3.93335727
v 1.21762490 0.90000000 3.53623947
v 1.35436352 0.90000000 3.93335727
v 2.90652590 -0.00000000 2.35365826
v 3.23292720 -0.00000000 2.61797283
v 2.90652590 0.90000000 2.35365826
v 3.23292720 0.90000000 2.61797283
v 3.26313507 -0.00000000 1.82744344
v 3.62958339 -0.00000000 2.03266436
v 3.26313507 0.90000000 1.82744344
v 3.62958339 0.90000000 2.03266436
v 3.52547918 -0.00000000 1.24843765
v 3.92138860 -0.00000000 1.38863653
v 3.52547918 0.90000000 1.24843765
v 3.92138860 0.90000000 1.38863653
v 3.68597966 -0.00000000 0.63336714
v 4.09991321 -0.00000000 0.70449394
v 3.68597966 0.90000000 0.63336714
v 4.09991321 0.90000000 0.70449394
v 3.74000000 -0.00000000 0.00000000
v 4.16000000 -0.00000000 0.00000000
v 3.74000000 0.90000000 0.00000000
v 4.16000000 0.90000000 0.00000000
v 5.14000000 0.00000000 0.00000000
v 5.56000000 0.00000000 0.00000000
v 5.14000000 0.90000000 0.00000000
v 5.56000000 0.90000000 0.00000000
v 5.08573002 0.00000000 -0.74494976
v 5.50129551 0.00000000 -0.80582114
v 5.08573002 0.90000000 -0.74494976
v 5.50129551 0.90000000 -0.80582114
v 4.92406609 0.00000000 -1.47416862
v 5.32642169 0.00000000 -1.59462597
v 4.92406609 0.90000000 -1.47416862
v 5.32642169 0.90000000 -1.59462597
v 4.65842203 0.00000000 -2.17225787
v 5.03907130 0.00000000 -2.34975754
v 4.65842203 0.90000000 -2.17225787
v 5.03907130 0.90000000 -2.34975754
v 2.94818288 0.00000000 -4.21044151
v 3.18908499 0.00000000 -4.55448537
v 2.94818288 0.90000000 -4.21044151
v 3.18908499 0.90000000 -4.55448537
v 2.21282704 0.00000000 -4.63928836
v 2.39364170 0.00000000 -5.01837418
v 2.21282704 0.90000000 -4.63928836
v 2.39364170 0.90000000 -5.01837418
v 1.41677601 0.00000000 -4.94088512
v 1.53254370 0.00000000 -5.34461503
v 1.41677601 0.90000000 -4.94088512
v 1.53254370 0.90000000 -5.34461503
v 0.58186452 0.00000000 -5.10695934
v 0.62940987 0.00000000 -5.52425952
v 0.58186452 0.90000000 -5.10695934
v 0.62940987 0.90000000 -5.52425952
v -0.26900682 0.00000000 -5.13295581
v -0.29098792 0.00000000 -5.55238021
v -0.26900682 0.90000000 -5.13295581
v -0.29098792 0.90000000 -5.55238021
v -1.11249962 0.00000000 -5.01816148
v -1.20340425 0.00000000 -5.42820580
v -1.11249962 0.90000000 -5.01816148
v -1.20340425 0.90000000 -5.42820580
v -1.92547789 0.00000000 -4.76572501
v -2.08281266 0.00000000 -5.15514223
v -1.92547789 0.90000000 -4.76572501
v -2.08281266 0.90000000 -5.15514223
v -2.68564262 0.00000000 -4.38257044
v -2.90509202 0.00000000 -4.74067931
v -2.68564262 0.90000000 -4.38257044
v -2.90509202 0.90000000 -4.74067931
v -3.37214341 0.00000000 -3.87920724
v -3.64768820 0.00000000 -4.19618527
v -3.37214341 0.90000000 -3.87920724
v -3.64768820 0.90000000 -4.19618527
v -3.96615036 0.00000000 -3.26944205
v -4.29023268 0.00000000 -3.53659490
v -3.96615036 0.90000000 -3.26944205
v -4.29023268 0.90000000 -3.53659490
v -4.45137058 0.00000000 -2.57000000
v -4.81510125 0.00000000 -2.78000000
v -4.45137058 0.90000000 -2.57000000
v -4.81510125 0.90000000 -2.78000000
v -5.14000000 0.00000000 -0.00000000
v -5.56000000 0.00000000 -0.00000000
v -5.14000000 0.90000000 -0.00000000
v -5.56000000 0.90000000 -0.00000000
v -5.06191185 -0.00000000 0.89255163
v -5.47553111 -0.00000000 0.96548387
v -5.06191185 0.90000000 0.89255163
v -5.47553111 0.90000000 0.96548387
v -4.83002007 -0.00000000 1.75798354
v -5.22469097 -0.00000000 1.90163200
v -4.83002007 0.90000000 1.75798354
v -5.22469097 0.90000000 1.90163200
v -4.45137058 -0.00000000 2.57000000
v -4.81510125 -0.00000000 2.78000000
v -4.45137058 0.90000000 2.57000000
v -4.81510125 0.90000000 2.78000000
v -3.93746844 -0.00000000 3.30392831
v -4.25920710 -0.00000000 3.57389911
v -3.93746844 0.90000000 3.30392831
v -4.25920710 0.90000000 3.57389911
v -3.30392831 -0.00000000 3.93746844
v -3.57389911 -0.00000000 4.25920710
v -3.30392831 0.90000000 3.93746844
v -3.57389911 0.90000000 4.25920710
v -2.57000000 -0.00000000 4.45137058
v -2.78000000 -0.00000000 4.81510125
v -2.57000000 0.90000000 4.45137058
v -2.78000000 0.90000000 4.81510125
v -1.75798354 -0.00000000 4.83002007
v -1.90163200 -0.00000000 5.22469097
v -1.75798354 0.90000000 4.83002007
v -1.90163200 0.90000000 5.22469097
v -0.89255163 -0.00000000 5.06191185
v -0.96548387 -0.00000000 5.47553111
v -0.89255163 0.90000000 5.06191185
v -0.96548387 0.90000000 5.47553111
v -0.00000000 -0.00000000 5.14000000
v -0.00000000 -0.00000000 5.56000000
v -0.00000000 0.90000000 5.14000000
v -0.00000000 0.90000000 5.56000000
v 2.57000000 -0.00000000 4.45137058
v 2.78000000 -0.00000000 4.81510125
v 2.57000000 0.90000000 4.45137058
v 2.78000000 0.90000000 4.81510125
v 3.30392831 -0.00000000 3.93746844
v 3.57389911 -0.00000000 4.25920710
v 3.30392831 0.90000000 3.93746844
v 3.57389911 0.90000000 4.25920710
v 3.93746844 -0.00000000 3.30392831
v 4.25920710 -0.00000000 3.57389911
v 3.93746844 0.90000000 3.30392831
v 4.25920710 0.90000000 3.57389911
v 4.45137058 -0.00000000 2.57000000
v 4.81510125 -0.00000000 2.78000000
v 4.45137058 0.90000000 2.57000000
v 4.81510125 0.90000000 2.78000000
v 4.83002007 -0.00000000 1.75798354
v 5.22469097 -0.00000000 1.90163200
v 4.83002007 0.90000000 1.75798354
v 5.22469097 0.90000000 1.90163200
v 5.06191185 -0.00000000 0.89255163
v 5.47553111 -0.00000000 0.96548387
v 5.06191185 0.90000000 0.89255163
v 5.47553111 0.90000000 0.96548387
v 5.14000000 -0.00000000 0.00000000
v 5.56000000 -0.00000000 0.00000000
v 5.14000000 0.90000000 0.00000000
v 5.56000000 0.90000000 0.00000000
v 6.54000000 0.00000000 0.00000000
v 6.96000000 0.00000000 0.00000000
v 6.54000000 0.90000000 0.00000000
v 6.96000000 0.90000000 0.00000000
v 6.44064270 0.00000000 -1.13565908
v 6.85426196 0.00000000 -1.20859132
v 6.44064270 0.90000000 -1.13565908
v 6.85426196 0.90000000 -1.20859132
v 6.14558974 0.00000000 -2.23681174
v 6.54026064 0.00000000 -2.38046020
v 6.14558974 0.90000000 -2.23681174
v 6.54026064 0.90000000 -2.38046020
v 5.66380614 0.00000000 -3.27000000
v 6.02753681 0.00000000 -3.48000000
v 5.66380614 0.90000000 -3.27000000
v 6.02753681 0.90000000 -3.48000000
v 5.00993066 0.00000000 -4.20383097
v 5.33166932 0.00000000 -4.47380176
v 5.00993066 0.90000000 -4.20383097
v 5.33166932 0.90000000 -4.47380176
v 4.20383097 0.00000000 -5.00993066
v 4.47380176 0.00000000 -5.33166932
v 4.20383097 0.90000000 -5.00993066
v 4.47380176 0.90000000 -5.33166932
v 3.27000000 0.00000000 -5.66380614
v 3.48000000 0.00000000 -6.02753681
v 3.27000000 0.90000000 -5.66380614
v 3.48000000 0.90000000 -6.02753681
v 2.23681174 0.00000000 -6.14558974
v 2.38046020 0.00000000 -6.54026064
v 2.23681174 0.90000000 -6.14558974
v 2.38046020 0.90000000 -6.54026064
v 1.13565908 0.00000000 -6.44064270
v 1.20859132 0.00000000 -6.85426196
v 1.13565908 0.90000000 -6.44064270
v 1.20859132 0.90000000 -6.85426196
v 0.00000000 0.00000000 -6.54000000
v 0.00000000 0.00000000 -6.96000000
v 0.00000000 0.90000000 -6.54000000
v 0.00000000 0.90000000 -6.96000000
v -1.13565908 0.00000000 -6.44064270
v -1.20859132 0.00000000 -6.85426196
v -1.13565908 0.90000000 -6.44064270
v -1.20859132 0.90000000 -6.85426196
v -2.23681174 0.00000000 -6.14558974
v -2.38046020 0.00000000 -6.54026064
v -2.23681174 0.90000000 -6.14558974
v -2.38046020 0.90000000 -6.54026064
v -3.27000000 0.00000000 -5.66380614
v -3.48000000 0.00000000 -6.02753681
v -3.27000000 0.90000000 -5.66380614
v -3.48000000 0.90000000 -6.02753681
v -5.66380614 0.00000000 -3.27000000
v -6.02753681 0.00000000 -3.48000000
v -5.66380614 0.90000000 -3.27000000
v -6.02753681 0.90000000 -3.48000000
v -6.13402655 0.00000000 -2.26832941
v -6.52795486 0.00000000 -2.41400195
v -6.13402655 0.90000000 -2.26832941
v -6.52795486 0.90000000 -2.41400195
v -6.42864407 0.00000000 -1.20172185
v -6.84149277 0.00000000 -1.27889664
v -6.42864407 0.90000000 -1.20172185
v -6.84149277 0.90000000 -1.27889664
v -6.53922451 0.00000000 -0.10071178
v -6.95917470 0.00000000 -0.10717951
v -6.53922451 0.90000000 -0.10071178
v -6.95917470 0.90000000 -0.10717951
v -6.46260219 -0.00000000 1.00318142
v -6.87763169 -0.00000000 1.06760592
v -6.46260219 0.90000000 1.00318142
v -6.87763169 0.90000000 1.06760592
v -6.20097064 -0.00000000 2.07835588
v -6.59919811 -0.00000000 2.21182828
v -6.20097064 0.90000000 2.07835588
v -6.59919811 0.90000000 2.21182828
v -5.76181975 -0.00000000 3.09403186
v -6.13184487 -0.00000000 3.29273116
v -5.76181975 0.90000000 3.09403186
v -6.13184487 0.90000000 3.29273116
v -5.15772140 -0.00000000 4.02113292
v -5.48895121 -0.00000000 4.27937081
v -5.15772140 0.90000000 4.02113292
v -5.48895121 0.90000000 4.27937081
v -4.40596951 -0.00000000 4.83311832
v -4.68892168 -0.00000000 5.14350206
v -4.40596951 0.90000000 4.83311832
v -4.68892168 0.90000000 5.14350206
v -3.52808498 -0.00000000 5.50674281
v -3.75465925 -0.00000000 5.86038684
v -3.52808498 0.90000000 5.50674281
v -3.75465925 0.90000000 5.86038684
v -2.54919961 -0.00000000 6.02272209
v -2.71290968 -0.00000000 6.40950240
v -2.54919961 0.90000000 6.02272209
v -2.71290968 0.90000000 6.40950240
v -1.49733660 -0.00000000 6.36628488
v -1.59349583 -0.00000000 6.77512886
v -1.49733660 0.90000000 6.36628488
v -1.59349583 0.90000000 6.77512886
v -0.40260833 -0.00000000 6.52759577
v -0.42846391 -0.00000000 6.94679917
v -0.40260833 0.90000000 6.52759577
v -0.42846391 0.90000000 6.94679917
v 0.70364568 -0.00000000 6.50203682
v 0.74883394 -0.00000000 6.91959881
v 0.70364568 0.90000000 6.50203682
v 0.74883394 0.90000000 6.91959881
v 1.78975596 -0.00000000 6.29033971
v 1.90469441 -0.00000000 6.69430648
v 1.78975596 0.90000000 6.29033971
v 1.90469441 0.90000000 6.69430648
v 2.82462969 -0.00000000 5.89856484
v 3.00602792 -0.00000000 6.27737175
v 2.82462969 0.90000000 5.89856484
v 3.00602792 0.90000000 6.27737175
v 3.77864086 -0.00000000 5.33792781
v 4.02130587 -0.00000000 5.68073051
v 3.77864086 0.90000000 5.33792781
v 4.02130587 0.90000000 5.68073051
v 4.62447835 -0.00000000 4.62447835
v 4.92146320 -0.00000000 4.92146320
v 4.62447835 0.90000000 4.62447835
v 4.92146320 0.90000000 4.92146320
v 6.31715490 -0.00000000 1.69267655
v 6.72284375 -0.00000000 1.80138055
v 6.31715490 0.90000000 1.69267655
v 6.72284375 0.90000000 1.80138055
v 6.48404939 -0.00000000 0.85364130
v 6.90045624 -0.00000000 0.90846230
v 6.48404939 0.90000000 0.85364130
v 6.90045624 0.90000000 0.90846230
v 6.54000000 -0.00000000 0.00000000
v 6.96000000 -0.00000000 0.00000000
v 6.54000000 0.90000000 0.00000000
v 6.96000000 0.90000000 0.00000000
v 7.94000000 0.00000000 0.00000000
v 8.36000000 0.00000000 0.00000000
v 7.94000000 0.90000000 0.00000000
v 8.36000000 0.90000000 0.00000000
v 7.83951694 0.00000000 -1.25919581
v 8.25420172 0.00000000 -1.32580314
v 7.83951694 0.90000000 -1.25919581
v 8.25420172 0.90000000 -1.32580314
v 7.54061106 0.00000000 -2.48652062
v 7.93948470 0.00000000 -2.61804942
v 7.54061106 0.90000000 -2.48652062
v 7.93948470 0.90000000 -2.61804942
v 7.05084784 0.00000000 -3.65091013
v 7.42381460 0.00000000 -3.84403132
v 7.05084784 0.90000000 -3.65091013
v 7.42381460 0.90000000 -3.84403132
v 6.38262347 0.00000000 -4.72289293
v 6.72024335 0.00000000 -4.97271850
v 6.38262347 0.90000000 -4.72289293
v 6.72024335 0.90000000 -4.97271850
v 5.55285112 0.00000000 -5.67533650
v 5.84657876 0.00000000 -5.97554322
v 5.55285112 0.90000000 -5.67533650
v 5.84657876 0.90000000 -5.97554322
v 4.58253281 0.00000000 -6.48413395
v 4.82493379 0.00000000 -6.82712340
v 4.58253281 0.90000000 -6.48413395
v 4.82493379 0.90000000 -6.82712340
v 3.49622787 0.00000000 -7.12881411
v 3.68116688 0.00000000 -7.50590504
v 3.49622787 0.90000000 -7.12881411
v 3.68116688 0.90000000 -7.50590504
v 2.32143134 0.00000000 -7.59305976
v 2.44422745 0.00000000 -7.99470776
v 2.32143134 0.90000000 -7.59305976
v 2.44422745 0.90000000 -7.99470776
v -2.32143134 0.00000000 -7.59305976
v -2.44422745 0.00000000 -7.99470776
v -2.32143134 0.90000000 -7.59305976
v -2.44422745 0.90000000 -7.99470776
v -3.57140165 0.00000000 -7.09145192
v -3.76031710 0.00000000 -7.46656650
v -3.57140165 0.90000000 -7.09145192
v -3.76031710 0.90000000 -7.46656650
v -4.71860733 0.00000000 -6.38579242
v -4.96820621 0.00000000 -6.72357993
v -4.71860733 0.90000000 -6.38579242
v -4.96820621 0.90000000 -6.72357993
v -5.73003834 0.00000000 -5.49638614
v -6.03313860 0.00000000 -5.78712697
v -5.73003834 0.90000000 -5.49638614
v -6.03313860 0.90000000 -5.78712697
v -6.57659144 0.00000000 -4.44882514
v -6.92447159 0.00000000 -4.68415342
v -6.57659144 0.90000000 -4.44882514
v -6.92447159 0.90000000 -4.68415342
v -7.23390764 0.00000000 -3.27325225
v -7.61655767 0.00000000 -3.44639657
v -7.23390764 0.90000000 -3.27325225
v -7.61655767 0.90000000 -3.44639657
v -7.68307313 0.00000000 -2.00349378
v -8.08948254 0.00000000 -2.10947204
v -7.68307313 0.90000000 -2.00349378
v -8.08948254 0.90000000 -2.10947204
v -7.91116347 0.00000000 -0.67608615
v -8.32963812 0.00000000 -0.71184889
v -7.91116347 0.90000000 -0.67608615
v -8.32963812 0.90000000 -0.71184889
v -7.91161554 -0.00000000 0.67077539
v -8.33011409 -0.00000000 0.70625721
v -7.91161554 0.90000000 0.67077539
v -8.33011409 0.90000000 0.70625721
v -7.68441630 -0.00000000 1.99833583
v -8.09089676 -0.00000000 2.10404125
v -7.68441630 0.90000000 1.99833583
v -8.09089676 0.90000000 2.10404125
v -7.23610328 -0.00000000 3.26839553
v -7.61886945 -0.00000000 3.44128295
v -7.23610328 0.90000000 3.26839553
v -7.61886945 0.90000000 3.44128295
v -6.57957636 -0.00000000 4.44440940
v -6.92761441 -0.00000000 4.67950410
v -6.57957636 0.90000000 4.44440940
v -6.92761441 0.90000000 4.67950410
v -5.73372666 -0.00000000 5.49253844
v -6.03702203 -0.00000000 5.78307574
v -5.73372666 0.90000000 5.49253844
v -6.03702203 0.90000000 5.78307574
v -4.72289293 -0.00000000 6.38262347
v -4.97271850 -0.00000000 6.72024335
v -4.72289293 0.90000000 6.38262347
v -4.97271850 0.90000000 6.72024335
v -3.57616119 -0.00000000 7.08905291
v -3.76532841 -0.00000000 7.46404059
v -3.57616119 0.90000000 7.08905291
v -3.76532841 0.90000000 7.46404059
v -2.32652788 -0.00000000 7.59149972
v -2.44959359 -0.00000000 7.99306520
v -2.32652788 0.90000000 7.59149972
v -2.44959359 0.90000000 7.99306520
v -1.00995034 -0.00000000 7.87550635
v -1.06337340 -0.00000000 8.29209485
v -1.00995034 0.90000000 7.87550635
v -1.06337340 0.90000000 8.29209485
v 0.33568784 -0.00000000 7.93290071
v 0.35344463 -0.00000000 8.35252518
v 0.33568784 0.90000000 7.93290071
v 0.35344463 0.90000000 8.35252518
v 1.67166683 -0.00000000 7.76203131
v 1.76009253 -0.00000000 8.17261735
v 1.67166683 0.90000000 7.76203131
v 1.76009253 0.90000000 8.17261735
v 2.95954475 -0.00000000 7.36781480
v 3.11609498 -0.00000000 7.75754807
v 2.95954475 0.90000000 7.36781480
v 3.11609498 0.90000000 7.75754807
v 4.16226381 -0.00000000 6.76159448
v 4.38243394 -0.00000000 7.11926069
v 4.16226381 0.90000000 6.76159448
v 4.38243394 0.90000000 7.11926069
v 5.24521660 -0.00000000 5.96081394
v 5.52267138 -0.00000000 6.27612148
v 5.24521660 0.90000000 5.96081394
v 5.52267138 0.90000000 6.27612148
v 6.17724188 -0.00000000 4.98851508
v 6.50399775 -0.00000000 5.25239119
v 6.17724188 0.90000000 4.98851508
v 6.50399775 0.90000000 5.25239119
v 6.93152129 -0.00000000 3.87267513
v 7.29817606 -0.00000000 4.07752696
v 6.93152129 0.90000000 3.87267513
v 7.29817606 0.90000000 4.07752696
v 7.48635093 -0.00000000 2.64540162
v 7.88235438 -0.00000000 2.78533470
v 7.48635093 0.90000000 2.64540162
v 7.88235438 0.90000000 2.78533470
v 7.82576598 -0.00000000 1.34200849
v 8.23972338 -0.00000000 1.41299635
v 7.82576598 0.90000000 1.34200849
v 8.23972338 0.90000000 1.41299635
v 7.94000000 -0.00000000 0.00000000
v 8.36000000 -0.00000000 0.00000000
v 7.94000000 0.90000000 0.00000000
v 8.36000000 0.90000000 0.00000000
v 1.46000000 -0.00000000 0.21000000
v 1.46000000 0.90000000 0.21000000
v 1.46000000 0.00000000 -0.21000000
v 1.46000000 0.90000000 -0.21000000
v 2.34000000 -0.00000000 0.21000000
v 2.34000000 0.90000000 0.21000000
v 2.34000000 0.00000000 -0.21000000
v 2.34000000 0.90000000 -0.21000000
v -1.46000000 0.00000000 -0.21000000
v -1.46000000 0.90000000 -0.21000000
v -1.46000000 -0.00000000 0.21000000
v -1.46000000 0.90000000 0.21000000
v -2.34000000 0.00000000 -0.21000000
v -2.34000000 0.90000000 -0.21000000
v -2.34000000 -0.00000000 0.21000000
v -2.34000000 0.90000000 0.21000000
v 1.14131105 0.00000000 -2.52172740
v 1.14131105 0.90000000 -2.52172740
v 0.74664015 0.00000000 -2.66537586
v 0.74664015 0.90000000 -2.66537586
v 1.47649079 0.00000000 -3.44262617
v 1.47649079 0.90000000 -3.44262617
v 1.08181989 0.00000000 -3.58627463
v 1.08181989 0.90000000 -3.58627463
v -1.35675104 -0.00000000 2.41265966
v -1.35675104 0.90000000 2.41265966
v -0.97610177 -0.00000000 2.59015933
v -0.97610177 0.90000000 2.59015933
v -1.77091693 -0.00000000 3.30084129
v -1.77091693 0.90000000 3.30084129
v -1.39026766 -0.00000000 3.47834096
v -1.39026766 0.90000000 3.47834096
v -3.68149056 0.00000000 -1.94841660
v -3.68149056 0.90000000 -1.94841660
v -3.85899023 0.00000000 -1.56776733
v -3.85899023 0.90000000 -1.56776733
v -4.56967219 0.00000000 -2.36258250
v -4.56967219 0.90000000 -2.36258250
v -4.74717186 0.00000000 -1.98193323
v -4.74717186 0.90000000 -1.98193323
v 3.49766568 -0.00000000 2.26186533
v 3.49766568 0.90000000 2.26186533
v 3.70766568 -0.00000000 1.89813467
v 3.70766568 0.90000000 1.89813467
v 4.34637058 -0.00000000 2.75186533
v 4.34637058 0.90000000 2.75186533
v 4.55637058 -0.00000000 2.38813467
v 4.55637058 0.90000000 2.38813467
v 5.42489959 0.00000000 -1.23618947
v 5.42489959 0.90000000 -1.23618947
v 5.31619559 0.00000000 -1.64187831
v 5.31619559 0.90000000 -1.64187831
v 6.37150690 0.00000000 -1.48983213
v 6.37150690 0.90000000 -1.48983213
v 6.26280290 0.00000000 -1.89552098
v 6.26280290 0.90000000 -1.89552098
v -4.39419250 -0.00000000 3.41302978
v -4.39419250 0.90000000 3.41302978
v -4.12422171 -0.00000000 3.73476844
v -4.12422171 0.90000000 3.73476844
v -5.14491606 -0.00000000 4.04296163
v -5.14491606 0.90000000 4.04296163
v -4.87494526 -0.00000000 4.36470030
v -4.87494526 0.90000000 4.36470030
v -6.39665203 -0.00000000 2.75109847
v -6.39665203 0.90000000 2.75109847
v -6.21915236 -0.00000000 3.13174774
v -6.21915236 0.90000000 3.13174774
v -7.28483366 -0.00000000 3.16526436
v -7.28483366 0.90000000 3.16526436
v -7.10733399 -0.00000000 3.54591363
v -7.10733399 0.90000000 3.54591363
v 6.81779584 -0.00000000 1.41540094
v 6.81779584 0.90000000 1.41540094
v 6.89072808 -0.00000000 1.00178169
v 6.89072808 0.90000000 1.00178169
v 7.78290744 -0.00000000 1.58557616
v 7.78290744 0.90000000 1.58557616
v 7.85583968 -0.00000000 1.17195690
v 7.85583968 0.90000000 1.17195690
f 1 6 2
f 1 5 6
f 3 4 8
f 3 8 7
f 1 3 7
f 1 7 5
f 2 6 8
f 2 8 4
f 5 10 6
f 5 9 10
f 7 8 12
f 7 12 11
f 5 7 11
f 5 11 9
f 6 10 12
f 6 12 8
f 9 14 10
f 9 13 14
f 11 12 16
f 11 16 15
f 9 11 15
f 9 15 13
f 10 14 16
f 10 16 12
f 13 18 14
f 13 17 18
f 15 16 20
f 15 20 19
f 13 15 19
f 13 19 17
f 14 18 20
f 14 20 16
f 17 22 18
f 17 21 22
f 19 20 24
f 19 24 23
f 17 19 23
f 17 23 21
f 18 22 24
f 18 24 20
f 21 26 22
f 21 25 26
f 23 24 28
f 23 28 27
f 21 23 27
f 21 27 25
f 22 26 28
f 22 28 24
f 25 30 26
f 25 29 30
f 27 28 32
f 27 32 31
f 25 27 31
f 25 31 29
f 26 30 32
f 26 32 28
f 29 34 30
f 29 33 34
f 31 32 36
f 31 36 35
f 29 31 35
f 29 35 33
f 30 34 36
f 30 36 32
f 1 2 4
f 1 4 3
f 33 36 34
f 33 35 36
f 37 42 38
f 37 41 42
f 39 40 44
f 39 44 43
f 37 39 43
f 37 43 41
f 38 42 44
f 38 44 40
f 41 46 42
f 41 45 46
f 43 44 48
f 43 48 47
f 41 43 47
f 41 47 45
f 42 46 48
f 42 48 44
f 45 50 46
f 45 49 50
f 47 48 52
f 47 52 51
f 45 47 51
f 45 51 49
f 46 50 52
f 46 52 48
f 49 54 50
f 49 53 54
f 51 52 56
f 51 56 55
f 49 51 55
f 49 55 53
f 50 54 56
f 50 56 52
f 53 58 54
f 53 57 58
f 55 56 60
f 55 60 59
f 53 55 59
f 53 59 57
f 54 58 60
f 54 60 56
f 57 62 58
f 57 61 62
f 59 60 64
f 59 64 63
f 57 59 63
f 57 63 61
f 58 62 64
f 58 64 60
f 61 66 62
f 61 65 66
f 63 64 68
f 63 68 67
f 61 63 67
f 61 67 65
f 62 66 68
f 62 68 64
f 65 70 66
f 65 69 70
f 67 68 72
f 67 72 71
f 65 67 71
f 65 71 69
f 66 70 72
f 66 72 68
f 69 74 70
f 69 73 74
f 71 72 76
f 71 76 75
f 69 71 75
f 69 75 73
f 70 74 76
f 70 76 72
f 73 78 74
f 73 77 78
f 75 76 80
f 75 80 79
f 73 75 79
f 73 79 77
f 74 78 80
f 74 80 76
f 77 82 78
f 77 81 82
f 79 80 84
f 79 84 83
f 77 79 83
f 77 83 81
f 78 82 84
f 78 84 80
f 81 86 82
f 81 85 86
f 83 84 88
f 83 88 87
f 81 83 87
f 81 87 85
f 82 86 88
f 82 88 84
f 85 90 86
f 85 89 90
f 87 88 92
f 87 92 91
f 85 87 91
f 85 91 89
f 86 90 92
f 86 92 88
f 89 94 90
f 89 93 94
f 91 92 96
f 91 96 95
f 89 91 95
f 89 95 93
f 90 94 96
f 90 96 92
f 93 98 94
f 93 97 98
f 95 96 100
f 95 100 99
f 93 95 99
f 93 99 97
f 94 98 100
f 94 100 96
f 37 38 40
f 37 40 39
f 97 100 98
f 97 99 100
f 101 106 102
f 101 105 106
f 103 104 108
f 103 108 107
f 101 103 107
f 101 107 105
f 102 106 108
f 102 108 104
f 105 110 106
f 105 109 110
f 107 108 112
f 107 112 111
f 105 107 111
f 105 111 109
f 106 110 112
f 106 112 108
f 109 114 110
f 109 113 114
f 111 112 116
f 111 116 115
f 109 111 115
f 109 115 113
f 110 114 116
f 110 116 112
f 113 118 114
f 113 117 118
f 115 116 120
f 115 120 119
f 113 115 119
f 113 119 117
f 114 118 120
f 114 120 116
f 117 122 118
f 117 121 122
f 119 120 124
f 119 124 123
f 117 119 123
f 117 123 121
f 118 122 124
f 118 124 120
f 121 126 122
f 121 125 126
f 123 124 128
f 123 128 127
f 121 123 127
f 121 127 125
f 122 126 128
f 122 128 124
f 125 130 126
f 125 129 130
f 127 128 132
f 127 132 131
f 125 127 131
f 125 131 129
f 126 130 132
f 126 132 128
f 129 134 130
f 129 133 134
f 131 132 136
f 131 136 135
f 129 131 135
f 129 135 133
f 130 134 136
f 130 136 132
f 101 102 104
f 101 104 103
f 133 136 134
f 133 135 136
f 137 142 138
f 137 141 142
f 139 140 144
f 139 144 143
f 137 139 143
f 137 143 141
f 138 142 144
f 138 144 140
f 137 138 140
f 137 140 139
f 141 144 142
f 141 143 144
f 145 150 146
f 145 149 150
f 147 148 152
f 147 152 151
f 145 147 151
f 145 151 149
f 146 150 152
f 146 152 148
f 149 154 150
f 149 153 154
f 151 152 156
f 151 156 155
f 149 151 155
f 149 155 153
f 150 154 156
f 150 156 152
f 153 158 154
f 153 157 158
f 155 156 160
f 155 160 159
f 153 155 159
f 153 159 157
f 154 158 160
f 154 160 156
f 157 162 158
f 157 161 162
f 159 160 164
f 159 164 163
f 157 159 163
f 157 163 161
f 158 162 164
f 158 164 160
f 161 166 162
f 161 165 166
f 163 164 168
f 163 168 167
f 161 163 167
f 161 167 165
f 162 166 168
f 162 168 164
f 165 170 166
f 165 169 170
f 167 168 172
f 167 172 171
f 165 167 171
f 165 171 169
f 166 170 172
f 166 172 168
f 169 174 170
f 169 173 174
f 171 172 176
f 171 176 175
f 169 171 175
f 169 175 173
f 170 174 176
f 170 176 172
f 173 178 174
f 173 177 178
f 175 176 180
f 175 180 179
f 173 175 179
f 173 179 177
f 174 178 180
f 174 180 176
f 177 182 178
f 177 181 182
f 179 180 184
f 179 184 183
f 177 179 183
f 177 183 181
f 178 182 184
f 178 184 180
f 181 186 182
f 181 185 186
f 183 184 188
f 183 188 187
f 181 183 187
f 181 187 185
f 182 186 188
f 182 188 184
f 185 190 186
f 185 189 190
f 187 188 192
f 187 192 191
f 185 187 191
f 185 191 189
f 186 190 192
f 186 192 188
f 189 194 190
f 189 193 194
f 191 192 196
f 191 196 195
f 189 191 195
f 189 195 193
f 190 194 196
f 190 196 192
f 193 198 194
f 193 197 198
f 195 196 200
f 195 200 199
f 193 195 199
f 193 199 197
f 194 198 200
f 194 200 196
f 197 202 198
f 197 201 202
f 199 200 204
f 199 204 203
f 197 199 203
f 197 203 201
f 198 202 204
f 198 204 200
f 201 206 202
f 201 205 206
f 203 204 208
f 203 208 207
f 201 203 207
f 201 207 205
f 202 206 208
f 202 208 204
f 145 146 148
f 145 148 147
f 205 208 206
f 205 207 208
f 209 214 210
f 209 213 214
f 211 212 216
f 211 216 215
f 209 211 215
f 209 215 213
f 210 214 216
f 210 216 212
f 213 218 214
f 213 217 218
f 215 216 220
f 215 220 219
f 213 215 219
f 213 219 217
f 214 218 220
f 214 220 216
f 217 222 218
f 217 221 222
f 219 220 224
f 219 224 223
f 217 219 223
f 217 223 221
f 218 222 224
f 218 224 220
f 221 226 222
f 221 225 226
f 223 224 228
f 223 228 227
f 221 223 227
f 221 227 225
f 222 226 228
f 222 228 224
f 225 230 226
f 225 229 230
f 227 228 232
f 227 232 231
f 225 227 231
f 225 231 229
f 226 230 232
f 226 232 228
f 229 234 230
f 229 233 234
f 231 232 236
f 231 236 235
f 229 231 235
f 229 235 233
f 230 234 236
f 230 236 232
f 233 238 234
f 233 237 238
f 235 236 240
f 235 240 239
f 233 235 239
f 233 239 237
f 234 238 240
f 234 240 236
f 237 242 238
f 237 241 242
f 239 240 244
f 239 244 243
f 237 239 243
f 237 243 241
f 238 242 244
f 238 244 240
f 241 246 242
f 241 245 246
f 243 244 248
f 243 248 247
f 241 243 247
f 241 247 245
f 242 246 248
f 242 248 244
f 245 250 246
f 245 249 250
f 247 248 252
f 247 252 251
f 245 247 251
f 245 251 249
f 246 250 252
f 246 252 248
f 249 254 250
f 249 253 254
f 251 252 256
f 251 256 255
f 249 251 255
f 249 255 253
f 250 254 256
f 250 256 252
f 253 258 254
f 253 257 258
f 255 256 260
f 255 260 259
f 253 255 259
f 253 259 257
f 254 258 260
f 254 260 256
f 257 262 258
f 257 261 262
f 259 260 264
f 259 264 263
f 257 259 263
f 257 263 261
f 258 262 264
f 258 264 260
f 261 266 262
f 261 265 266
f 263 264 268
f 263 268 267
f 261 263 267
f 261 267 265
f 262 266 268
f 262 268 264
f 265 270 266
f 265 269 270
f 267 268 272
f 267 272 271
f 265 267 271
f 265 271 269
f 266 270 272
f 266 272 268
f 209 210 212
f 209 212 211
f 269 272 270
f 269 271 272
f 273 278 274
f 273 277 278
f 275 276 280
f 275 280 279
f 273 275 279
f 273 279 277
f 274 278 280
f 274 280 276
f 277 282 278
f 277 281 282
f 279 280 284
f 279 284 283
f 277 279 283
f 277 283 281
f 278 282 284
f 278 284 280
f 281 286 282
f 281 285 286
f 283 284 288
f 283 288 287
f 281 283 287
f 281 287 285
f 282 286 288
f 282 288 284
f 285 290 286
f 285 289 290
f 287 288 292
f 287 292 291
f 285 287 291
f 285 291 289
f 286 290 292
f 286 292 288
f 289 294 290
f 289 293 294
f 291 292 296
f 291 296 295
f 289 291 295
f 289 295 293
f 290 294 296
f 290 296 292
f 293 298 294
f 293 297 298
f 295 296 300
f 295 300 299
f 293 295 299
f 293 299 297
f 294 298 300
f 294 300 296
f 297 302 298
f 297 301 302
f 299 300 304
f 299 304 303
f 297 299 303
f 297 303 301
f 298 302 304
f 298 304 300
f 301 306 302
f 301 305 306
f 303 304 308
f 303 308 307
f 301 303 307
f 301 307 305
f 302 306 308
f 302 308 304
f 305 310 306
f 305 309 310
f 307 308 312
f 307 312 311
f 305 307 311
f 305 311 309
f 306 310 312
f 306 312 308
f 309 314 310
f 309 313 314
f 311 312 316
f 311 316 315
f 309 311 315
f 309 315 313
f 310 314 316
f 310 316 312
f 273 274 276
f 273 276 275
f 313 316 314
f 313 315 316
f 317 322 318
f 317 321 322
f 319 320 324
f 319 324 323
f 317 319 323
f 317 323 321
f 318 322 324
f 318 324 320
f 321 326 322
f 321 325 326
f 323 324 328
f 323 328 327
f 321 323 327
f 321 327 325
f 322 326 328
f 322 328 324
f 325 330 326
f 325 329 330
f 327 328 332
f 327 332 331
f 325 327 331
f 325 331 329
f 326 330 332
f 326 332 328
f 329 334 330
f 329 333 334
f 331 332 336
f 331 336 335
f 329 331 335
f 329 335 333
f 330 334 336
f 330 336 332
f 333 338 334
f 333 337 338
f 335 336 340
f 335 340 339
f 333 335 339
f 333 339 337
f 334 338 340
f 334 340 336
f 337 342 338
f 337 341 342
f 339 340 344
f 339 344 343
f 337 339 343
f 337 343 341
f 338 342 344
f 338 344 340
f 341 346 342
f 341 345 346
f 343 344 348
f 343 348 347
f 341 343 347
f 341 347 345
f 342 346 348
f 342 348 344
f 345 350 346
f 345 349 350
f 347 348 352
f 347 352 351
f 345 347 351
f 345 351 349
f 346 350 352
f 346 352 348
f 349 354 350
f 349 353 354
f 351 352 356
f 351 356 355
f 349 351 355
f 349 355 353
f 350 354 356
f 350 356 352
f 353 358 354
f 353 357 358
f 355 356 360
f 355 360 359
f 353 355 359
f 353 359 357
f 354 358 360
f 354 360 356
f 357 362 358
f 357 361 362
f 359 360 364
f 359 364 363
f 357 359 363
f 357 363 361
f 358 362 364
f 358 364 360
f 361 366 362
f 361 365 366
f 363 364 368
f 363 368 367
f 361 363 367
f 361 367 365
f 362 366 368
f 362 368 364
f 365 370 366
f 365 369 370
f 367 368 372
f 367 372 371
f 365 367 371
f 365 371 369
f 366 370 372
f 366 372 368
f 369 374 370
f 369 373 374
f 371 372 376
f 371 376 375
f 369 371 375
f 369 375 373
f 370 374 376
f 370 376 372
f 373 378 374
f 373 377 378
f 375 376 380
f 375 380 379
f 373 375 379
f 373 379 377
f 374 378 380
f 374 380 376
f 377 382 378
f 377 381 382
f 379 380 384
f 379 384 383
f 377 379 383
f 377 383 381
f 378 382 384
f 378 384 380
f 317 318 320
f 317 320 319
f 381 384 382
f 381 383 384
f 385 390 386
f 385 389 390
f 387 388 392
f 387 392 391
f 385 387 391
f 385 391 389
f 386 390 392
f 386 392 388
f 389 394 390
f 389 393 394
f 391 392 396
f 391 396 395
f 389 391 395
f 389 395 393
f 390 394 396
f 390 396 392
f 393 398 394
f 393 397 398
f 395 396 400
f 395 400 399
f 393 395 399
f 393 399 397
f 394 398 400
f 394 400 396
f 397 402 398
f 397 401 402
f 399 400 404
f 399 404 403
f 397 399 403
f 397 403 401
f 398 402 404
f 398 404 400
f 385 386 388
f 385 388 387
f 401 404 402
f 401 403 404
f 405 410 406
f 405 409 410
f 407 408 412
f 407 412 411
f 405 407 411
f 405 411 409
f 406 410 412
f 406 412 408
f 409 414 410
f 409 413 414
f 411 412 416
f 411 416 415
f 409 411 415
f 409 415 413
f 410 414 416
f 410 416 412
f 413 418 414
f 413 417 418
f 415 416 420
f 415 420 419
f 413 415 419
f 413 419 417
f 414 418 420
f 414 420 416
f 405 406 408
f 405 408 407
f 417 420 418
f 417 419 420
f 421 426 422
f 421 425 426
f 423 424 428
f 423 428 427
f 421 423 427
f 421 427 425
f 422 426 428
f 422 428 424
f 425 430 426
f 425 429 430
f 427 428 432
f 427 432 431
f 425 427 431
f 425 431 429
f 426 430 432
f 426 432 428
f 429 434 430
f 429 433 434
f 431 432 436
f 431 436 435
f 429 431 435
f 429 435 433
f 430 434 436
f 430 436 432
f 433 438 434
f 433 437 438
f 435 436 440
f 435 440 439
f 433 435 439
f 433 439 437
f 434 438 440
f 434 440 436
f 437 442 438
f 437 441 442
f 439 440 444
f 439 444 443
f 437 439 443
f 437 443 441
f 438 442 444
f 438 444 440
f 441 446 442
f 441 445 446
f 443 444 448
f 443 448 447
f 441 443 447
f 441 447 445
f 442 446 448
f 442 448 444
f 445 450 446
f 445 449 450
f 447 448 452
f 447 452 451
f 445 447 451
f 445 451 449
f 446 450 452
f 446 452 448
f 449 454 450
f 449 453 454
f 451 452 456
f 451 456 455
f 449 451 455
f 449 455 453
f 450 454 456
f 450 456 452
f 453 458 454
f 453 457 458
f 455 456 460
f 455 460 459
f 453 455 459
f 453 459 457
f 454 458 460
f 454 460 456
f 457 462 458
f 457 461 462
f 459 460 464
f 459 464 463
f 457 459 463
f 457 463 461
f 458 462 464
f 458 464 460
f 421 422 424
f 421 424 423
f 461 464 462
f 461 463 464
f 465 470 466
f 465 469 470
f 467 468 472
f 467 472 471
f 465 467 471
f 465 471 469
f 466 470 472
f 466 472 468
f 469 474 470
f 469 473 474
f 471 472 476
f 471 476 475
f 469 471 475
f 469 475 473
f 470 474 476
f 470 476 472
f 473 478 474
f 473 477 478
f 475 476 480
f 475 480 479
f 473 475 479
f 473 479 477
f 474 478 480
f 474 480 476
f 477 482 478
f 477 481 482
f 479 480 484
f 479 484 483
f 477 479 483
f 477 483 481
f 478 482 484
f 478 484 480
f 481 486 482
f 481 485 486
f 483 484 488
f 483 488 487
f 481 483 487
f 481 487 485
f 482 486 488
f 482 488 484
f 485 490 486
f 485 489 490
f 487 488 492
f 487 492 491
f 485 487 491
f 485 491 489
f 486 490 492
f 486 492 488
f 489 494 490
f 489 493 494
f 491 492 496
f 491 496 495
f 489 491 495
f 489 495 493
f 490 494 496
f 490 496 492
f 493 498 494
f 493 497 498
f 495 496 500
f 495 500 499
f 493 495 499
f 493 499 497
f 494 498 500
f 494 500 496
f 497 502 498
f 497 501 502
f 499 500 504
f 499 504 503
f 497 499 503
f 497 503 501
f 498 502 504
f 498 504 500
f 465 466 468
f 465 468 467
f 501 504 502
f 501 503 504
f 505 510 506
f 505 509 510
f 507 508 512
f 507 512 511
f 505 507 511
f 505 511 509
f 506 510 512
f 506 512 508
f 509 514 510
f 509 513 514
f 511 512 516
f 511 516 515
f 509 511 515
f 509 515 513
f 510 514 516
f 510 516 512
f 513 518 514
f 513 517 518
f 515 516 520
f 515 520 519
f 513 515 519
f 513 519 517
f 514 518 520
f 514 520 516
f 517 522 518
f 517 521 522
f 519 520 524
f 519 524 523
f 517 519 523
f 517 523 521
f 518 522 524
f 518 524 520
f 521 526 522
f 521 525 526
f 523 524 528
f 523 528 527
f 521 523 527
f 521 527 525
f 522 526 528
f 522 528 524
f 525 530 526
f 525 529 530
f 527 528 532
f 527 532 531
f 525 527 531
f 525 531 529
f 526 530 532
f 526 532 528
f 505 506 508
f 505 508 507
f 529 532 530
f 529 531 532
f 533 538 534
f 533 537 538
f 535 536 540
f 535 540 539
f 533 535 539
f 533 539 537
f 534 538 540
f 534 540 536
f 537 542 538
f 537 541 542
f 539 540 544
f 539 544 543
f 537 539 543
f 537 543 541
f 538 542 544
f 538 544 540
f 541 546 542
f 541 545 546
f 543 544 548
f 543 548 547
f 541 543 547
f 541 547 545
f 542 546 548
f 542 548 544
f 545 550 546
f 545 549 550
f 547 548 552
f 547 552 551
f 545 547 551
f 545 551 549
f 546 550 552
f 546 552 548
f 549 554 550
f 549 553 554
f 551 552 556
f 551 556 555
f 549 551 555
f 549 555 553
f 550 554 556
f 550 556 552
f 553 558 554
f 553 557 558
f 555 556 560
f 555 560 559
f 553 555 559
f 553 559 557
f 554 558 560
f 554 560 556
f 557 562 558
f 557 561 562
f 559 560 564
f 559 564 563
f 557 559 563
f 557 563 561
f 558 562 564
f 558 564 560
f 561 566 562
f 561 565 566
f 563 564 568
f 563 568 567
f 561 563 567
f 561 567 565
f 562 566 568
f 562 568 564
f 565 570 566
f 565 569 570
f 567 568 572
f 567 572 571
f 565 567 571
f 565 571 569
f 566 570 572
f 566 572 568
f 569 574 570
f 569 573 574
f 571 572 576
f 571 576 575
f 569 571 575
f 569 575 573
f 570 574 576
f 570 576 572
f 573 578 574
f 573 577 578
f 575 576 580
f 575 580 579
f 573 575 579
f 573 579 577
f 574 578 580
f 574 580 576
f 577 582 578
f 577 581 582
f 579 580 584
f 579 584 583
f 577 579 583
f 577 583 581
f 578 582 584
f 578 584 580
f 533 534 536
f 533 536 535
f 581 584 582
f 581 583 584
f 585 590 586
f 585 589 590
f 587 588 592
f 587 592 591
f 585 587 591
f 585 591 589
f 586 590 592
f 586 592 588
f 589 594 590
f 589 593 594
f 591 592 596
f 591 596 595
f 589 591 595
f 589 595 593
f 590 594 596
f 590 596 592
f 593 598 594
f 593 597 598
f 595 596 600
f 595 600 599
f 593 595 599
f 593 599 597
f 594 598 600
f 594 600 596
f 597 602 598
f 597 601 602
f 599 600 604
f 599 604 603
f 597 599 603
f 597 603 601
f 598 602 604
f 598 604 600
f 601 606 602
f 601 605 606
f 603 604 608
f 603 608 607
f 601 603 607
f 601 607 605
f 602 606 608
f 602 608 604
f 605 610 606
f 605 609 610
f 607 608 612
f 607 612 611
f 605 607 611
f 605 611 609
f 606 610 612
f 606 612 608
f 609 614 610
f 609 613 614
f 611 612 616
f 611 616 615
f 609 611 615
f 609 615 613
f 610 614 616
f 610 616 612
f 613 618 614
f 613 617 618
f 615 616 620
f 615 620 619
f 613 615 619
f 613 619 617
f 614 618 620
f 614 620 616
f 617 622 618
f 617 621 622
f 619 620 624
f 619 624 623
f 617 619 623
f 617 623 621
f 618 622 624
f 618 624 620
f 621 626 622
f 621 625 626
f 623 624 628
f 623 628 627
f 621 623 627
f 621 627 625
f 622 626 628
f 622 628 624
f 625 630 626
f 625 629 630
f 627 628 632
f 627 632 631
f 625 627 631
f 625 631 629
f 626 630 632
f 626 632 628
f 629 634 630
f 629 633 634
f 631 632 636
f 631 636 635
f 629 631 635
f 629 635 633
f 630 634 636
f 630 636 632
f 633 638 634
f 633 637 638
f 635 636 640
f 635 640 639
f 633 635 639
f 633 639 637
f 634 638 640
f 634 640 636
f 637 642 638
f 637 641 642
f 639 640 644
f 639 644 643
f 637 639 643
f 637 643 641
f 638 642 644
f 638 644 640
f 641 646 642
f 641 645 646
f 643 644 648
f 643 648 647
f 641 643 647
f 641 647 645
f 642 646 648
f 642 648 644
f 645 650 646
f 645 649 650
f 647 648 652
f 647 652 651
f 645 647 651
f 645 651 649
f 646 650 652
f 646 652 648
f 649 654 650
f 649 653 654
f 651 652 656
f 651 656 655
f 649 651 655
f 649 655 653
f 650 654 656
f 650 656 652
f 585 586 588
f 585 588 587
f 653 656 654
f 653 655 656
f 657 662 658
f 657 661 662
f 659 660 664
f 659 664 663
f 657 659 663
f 657 663 661
f 658 662 664
f 658 664 660
f 661 666 662
f 661 665 666
f 663 664 668
f 663 668 667
f 661 663 667
f 661 667 665
f 662 666 668
f 662 668 664
f 657 658 660
f 657 660 659
f 665 668 666
f 665 667 668
f 669 674 670
f 669 673 674
f 671 672 676
f 671 676 675
f 669 671 675
f 669 675 673
f 670 674 676
f 670 676 672
f 673 678 674
f 673 677 678
f 675 676 680
f 675 680 679
f 673 675 679
f 673 679 677
f 674 678 680
f 674 680 676
f 677 682 678
f 677 681 682
f 679 680 684
f 679 684 683
f 677 679 683
f 677 683 681
f 678 682 684
f 678 684 680
f 681 686 682
f 681 685 686
f 683 684 688
f 683 688 687
f 681 683 687
f 681 687 685
f 682 686 688
f 682 688 684
f 685 690 686
f 685 689 690
f 687 688 692
f 687 692 691
f 685 687 691
f 685 691 689
f 686 690 692
f 686 692 688
f 689 694 690
f 689 693 694
f 691 692 696
f 691 696 695
f 689 691 695
f 689 695 693
f 690 694 696
f 690 696 692
f 693 698 694
f 693 697 698
f 695 696 700
f 695 700 699
f 693 695 699
f 693 699 697
f 694 698 700
f 694 700 696
f 697 702 698
f 697 701 702
f 699 700 704
f 699 704 703
f 697 699 703
f 697 703 701
f 698 702 704
f 698 704 700
f 669 670 672
f 669 672 671
f 701 704 702
f 701 703 704
f 705 710 706
f 705 709 710
f 707 708 712
f 707 712 711
f 705 707 711
f 705 711 709
f 706 710 712
f 706 712 708
f 709 714 710
f 709 713 714
f 711 712 716
f 711 716 715
f 709 711 715
f 709 715 713
f 710 714 716
f 710 716 712
f 713 718 714
f 713 717 718
f 715 716 720
f 715 720 719
f 713 715 719
f 713 719 717
f 714 718 720
f 714 720 716
f 717 722 718
f 717 721 722
f 719 720 724
f 719 724 723
f 717 719 723
f 717 723 721
f 718 722 724
f 718 724 720
f 721 726 722
f 721 725 726
f 723 724 728
f 723 728 727
f 721 723 727
f 721 727 725
f 722 726 728
f 722 728 724
f 725 730 726
f 725 729 730
f 727 728 732
f 727 732 731
f 725 727 731
f 725 731 729
f 726 730 732
f 726 732 728
f 729 734 730
f 729 733 734
f 731 732 736
f 731 736 735
f 729 731 735
f 729 735 733
f 730 734 736
f 730 736 732
f 733 738 734
f 733 737 738
f 735 736 740
f 735 740 739
f 733 735 739
f 733 739 737
f 734 738 740
f 734 740 736
f 737 742 738
f 737 741 742
f 739 740 744
f 739 744 743
f 737 739 743
f 737 743 741
f 738 742 744
f 738 744 740
f 741 746 742
f 741 745 746
f 743 744 748
f 743 748 747
f 741 743 747
f 741 747 745
f 742 746 748
f 742 748 744
f 745 750 746
f 745 749 750
f 747 748 752
f 747 752 751
f 745 747 751
f 745 751 749
f 746 750 752
f 746 752 748
f 749 754 750
f 749 753 754
f 751 752 756
f 751 756 755
f 749 751 755
f 749 755 753
f 750 754 756
f 750 756 752
f 753 758 754
f 753 757 758
f 755 756 760
f 755 760 759
f 753 755 759
f 753 759 757
f 754 758 760
f 754 760 756
f 757 762 758
f 757 761 762
f 759 760 764
f 759 764 763
f 757 759 763
f 757 763 761
f 758 762 764
f 758 764 760
f 761 766 762
f 761 765 766
f 763 764 768
f 763 768 767
f 761 763 767
f 761 767 765
f 762 766 768
f 762 768 764
f 765 770 766
f 765 769 770
f 767 768 772
f 767 772 771
f 765 767 771
f 765 771 769
f 766 770 772
f 766 772 768
f 769 774 770
f 769 773 774
f 771 772 776
f 771 776 775
f 769 771 775
f 769 775 773
f 770 774 776
f 770 776 772
f 773 778 774
f 773 777 778
f 775 776 780
f 775 780 779
f 773 775 779
f 773 779 777
f 774 778 780
f 774 780 776
f 777 782 778
f 777 781 782
f 779 780 784
f 779 784 783
f 777 779 783
f 777 783 781
f 778 782 784
f 778 784 780
f 781 786 782
f 781 785 786
f 783 784 788
f 783 788 787
f 781 783 787
f 781 787 785
f 782 786 788
f 782 788 784
f 785 790 786
f 785 789 790
f 787 788 792
f 787 792 791
f 785 787 791
f 785 791 789
f 786 790 792
f 786 792 788
f 789 794 790
f 789 793 794
f 791 792 796
f 791 796 795
f 789 791 795
f 789 795 793
f 790 794 796
f 790 796 792
f 793 798 794
f 793 797 798
f 795 796 800
f 795 800 799
f 793 795 799
f 793 799 797
f 794 798 800
f 794 800 796
f 797 802 798
f 797 801 802
f 799 800 804
f 799 804 803
f 797 799 803
f 797 803 801
f 798 802 804
f 798 804 800
f 801 806 802
f 801 805 806
f 803 804 808
f 803 808 807
f 801 803 807
f 801 807 805
f 802 806 808
f 802 808 804
f 805 810 806
f 805 809 810
f 807 808 812
f 807 812 811
f 805 807 811
f 805 811 809
f 806 810 812
f 806 812 808
f 705 706 708
f 705 708 707
f 809 812 810
f 809 811 812
f 814 816 813
f 817 814 813
f 813 816 815
f 815 817 813
f 814 820 816
f 818 814 817
f 818 820 814
f 816 820 815
f 819 817 815
f 815 820 819
f 819 818 817
f 820 818 819
f 822 824 821
f 825 822 821
f 821 824 823
f 823 825 821
f 822 828 824
f 826 822 825
f 826 828 822
f 824 828 823
f 827 825 823
f 823 828 827
f 827 826 825
f 828 826 827
f 830 832 829
f 833 830 829
f 829 832 831
f 831 833 829
f 830 836 832
f 834 830 833
f 834 836 830
f 832 836 831
f 835 833 831
f 831 836 835
f 835 834 833
f 836 834 835
f 838 840 837
f 841 838 837
f 837 840 839
f 839 841 837
f 838 844 840
f 842 838 841
f 842 844 838
f 840 844 839
f 843 841 839
f 839 844 843
f 843 842 841
f 844 842 843
f 846 848 845
f 849 846 845
f 845 848 847
f 847 849 845
f 846 852 848
f 850 846 849
f 850 852 846
f 848 852 847
f 851 849 847
f 847 852 851
f 851 850 849
f 852 850 851
f 854 856 853
f 857 854 853
f 853 856 855
f 855 857 853
f 854 860 856
f 858 854 857
f 858 860 854
f 856 860 855
f 859 857 855
f 855 860 859
f 859 858 857
f 860 858 859
f 862 864 861
f 865 862 861
f 861 864 863
f 863 865 861
f 862 868 864
f 866 862 865
f 866 868 862
f 864 868 863
f 867 865 863
f 863 868 867
f 867 866 865
f 868 866 867
f 870 872 869
f 873 870 869
f 869 872 871
f 871 873 869
f 870 876 872
f 874 870 873
f 874 876 870
f 872 876 871
f 875 873 871
f 871 876 875
f 875 874 873
f 876 874 875
f 878 880 877
f 881 878 877
f 877 880 879
f 879 881 877
f 878 884 880
f 882 878 881
f 882 884 878
f 880 884 879
f 883 881 879
f 879 884 883
f 883 882 881
f 884 882 883
f 886 888 885
f 889 886 885
f 885 888 887
f 887 889 885
f 886 892 888
f 890 886 889
f 890 892 886
f 888 892 887
f 891 889 887
f 887 892 891
f 891 890 889
f 892 890 891

